<svg width="58.368" height="13.104" viewBox="0 0 58.368 13.104" xmlns="http://www.w3.org/2000/svg"><g id="svgGroup" stroke-linecap="round" fill-rule="evenodd" font-size="9pt" stroke="#ecf0f1" stroke-width="0.25mm" fill="#ecf0f1" style="stroke:#ecf0f1;stroke-width:0.25mm;fill:#ecf0f1"><path d="M 5.968 10.288 L 1.456 10.288 L 1.456 8.848 L 0 8.848 L 0 7.232 L 1.616 7.232 L 1.616 8.688 L 5.808 8.688 L 5.808 5.936 L 1.456 5.936 L 1.456 4.496 L 0 4.496 L 0 1.456 L 1.456 1.456 L 1.456 0 L 5.968 0 L 5.968 1.456 L 7.44 1.456 L 7.44 3.056 L 5.808 3.056 L 5.808 1.616 L 1.616 1.616 L 1.616 4.352 L 5.968 4.352 L 5.968 5.776 L 7.44 5.776 L 7.44 8.848 L 5.968 8.848 L 5.968 10.288 Z M 47.52 10.288 L 43.008 10.288 L 43.008 8.848 L 41.552 8.848 L 41.552 4.352 L 43.008 4.352 L 43.008 2.896 L 47.52 2.896 L 47.52 4.352 L 48.992 4.352 L 48.992 5.936 L 47.36 5.936 L 47.36 4.496 L 43.168 4.496 L 43.168 5.776 L 46.08 5.776 L 46.08 7.392 L 43.168 7.392 L 43.168 8.688 L 47.36 8.688 L 47.36 7.216 L 48.992 7.216 L 48.992 8.832 L 47.52 8.832 L 47.52 10.288 Z M 38.64 10.288 L 34.096 10.288 L 34.096 8.848 L 32.656 8.848 L 32.656 4.496 L 31.2 4.496 L 31.2 2.896 L 32.656 2.896 L 32.656 0 L 34.256 0 L 34.256 2.896 L 38.64 2.896 L 38.64 4.496 L 34.256 4.496 L 34.256 8.688 L 38.48 8.688 L 38.48 7.232 L 40.096 7.232 L 40.096 8.848 L 38.64 8.848 L 38.64 10.288 Z M 52.544 10.288 L 50.928 10.288 L 50.928 1.456 L 52.384 1.456 L 52.384 0 L 56.896 0 L 56.896 1.456 L 58.368 1.456 L 58.368 5.936 L 56.896 5.936 L 56.896 7.392 L 56.192 7.392 L 56.192 8.688 L 57.632 8.688 L 57.632 10.288 L 56.032 10.288 L 56.032 8.848 L 54.56 8.848 L 54.56 7.392 L 52.544 7.392 L 52.544 10.288 Z M 10.992 13.104 L 9.376 13.104 L 9.376 4.352 L 10.832 4.352 L 10.832 2.896 L 15.344 2.896 L 15.344 4.352 L 16.816 4.352 L 16.816 8.848 L 15.344 8.848 L 15.344 10.288 L 10.992 10.288 L 10.992 13.104 Z M 20.368 10.288 L 18.752 10.288 L 18.752 4.352 L 20.208 4.352 L 20.208 2.896 L 24.72 2.896 L 24.72 4.352 L 26.192 4.352 L 26.192 5.936 L 24.56 5.936 L 24.56 4.496 L 20.368 4.496 L 20.368 10.288 Z M 29.744 10.288 L 28.128 10.288 L 28.128 2.896 L 29.744 2.896 L 29.744 10.288 Z M 10.992 4.496 L 10.992 8.688 L 15.184 8.688 L 15.184 4.496 L 10.992 4.496 Z M 52.544 1.616 L 52.544 5.776 L 56.736 5.776 L 56.736 1.616 L 52.544 1.616 Z M 29.744 1.616 L 28.128 1.616 L 28.128 0 L 29.744 0 L 29.744 1.616 Z" vector-effect="non-scaling-stroke"/></g></svg>